 <svg width="19" height="22" viewBox="0 0 19 22" fill="none" xmlns="http://www.w3.org/2000/svg">
<path d="M5.98096 3V15C5.98096 15.5304 6.19167 16.0391 6.56674 16.4142C6.94182 16.7893 7.45052 17 7.98096 17H15.981C16.5114 17 17.0201 16.7893 17.3952 16.4142C17.7702 16.0391 17.981 15.5304 17.981 15V6.242C17.9809 5.97556 17.9277 5.71181 17.8243 5.46624C17.7209 5.22068 17.5695 4.99824 17.379 4.812L14.064 1.57C13.6903 1.20466 13.1885 1.00007 12.666 1H7.98096C7.45052 1 6.94182 1.21071 6.56674 1.58579C6.19167 1.96086 5.98096 2.46957 5.98096 3V3Z" stroke="#885FFF" stroke-width="2" stroke-linecap="round" stroke-linejoin="round"/>
<path d="M13.981 17V19C13.981 19.5304 13.7702 20.0391 13.3952 20.4142C13.0201 20.7893 12.5114 21 11.981 21H3.98096C3.45052 21 2.94182 20.7893 2.56674 20.4142C2.19167 20.0391 1.98096 19.5304 1.98096 19V8C1.98096 7.46957 2.19167 6.96086 2.56674 6.58579C2.94182 6.21071 3.45052 6 3.98096 6H5.98096" stroke="#885FFF" stroke-width="2" stroke-linecap="round" stroke-linejoin="round"/>
</svg>